# xmcd
#
# Track frame offsets:
#	150
#	14162
#	28962
#	40935
#	58882
#	69947
#	84752
#	98412
#	108127
#	124302
#	140220
#	156965
#	173920
#
# Disc length: 2472 seconds
#
# Revision: 0
# Processed by: cddbd v1.5.1PL0 Copyright (c) Steve Scherf et al.
# Submitted via: EasyCDDAExtractor 7.5.0.1
#
DISCID=b009a60d
DTITLE=Os Farrapos - Na Cadência da Vanera
DYEAR=1900
DGENRE=
TTITLE0=Segure as Éguas
TTITLE1=Salão de Saravá
TTITLE2=Na Cadência da Vaneira
TTITLE3=Gineteando no Alegrete
TTITLE4=Um Pedaço de Mim
TTITLE5=Atávico Rio Grande
TTITLE6=No Rincão do Canta Galo
TTITLE7=Mordendo o Beiço
TTITLE8=Tordilho
TTITLE9=Me Dasei com a Solteirona
TTITLE10=Morena do Baile
TTITLE11=Reclamando Tua Ausência
TTITLE12=Vaneira do Empanturrado
EXTD=
EXTT0=
EXTT1=
EXTT2=
EXTT3=
EXTT4=
EXTT5=
EXTT6=
EXTT7=
EXTT8=
EXTT9=
EXTT10=
EXTT11=
EXTT12=
PLAYORDER=
